<?xml version="1.0" standalone="no"?>
 <!DOCTYPE svg PUBLIC "-//W3C//DTD SVG 1.1//EN" 
 "http://www.w3.org/Graphics/SVG/1.1/DTD/svg11.dtd"> 
<svg
  xmlns:svg="http://www.w3.org/2000/svg"
  xmlns="http://www.w3.org/2000/svg"
  xmlns:xlink="http://www.w3.org/1999/xlink"
  version="1.1"
  width="147.0914mm" height="48.0822mm" viewBox="0.0000 0.0000 147.0914 48.0822">
<title>SVG Image created as FLT_CTL-User_2.svg date 2024/11/28 21:43:07 </title>
  <desc>Image generated by PCBNEW </desc>
<g style="fill:#000000; fill-opacity:1.0000;stroke:#000000; stroke-opacity:1.0000;
stroke-linecap:round; stroke-linejoin:round;"
 transform="translate(0 0) scale(1 1)">
</g>
<g style="fill:none; 
stroke:#000000; stroke-width:0.1000; stroke-opacity:1; 
stroke-linecap:round; stroke-linejoin:round;">
<path d="M0.0500 45.0500 A3.0000 3.0000 0.0 0 0 3.0500 48.0500" />
<path d="M144.9888 30.2901
L142.8159 30.2901
" />
<path d="M147.0500 3.0500
L146.9814 22.4754
" />
<path style="fill:none; 
stroke:#000000; stroke-width:0.1000; stroke-opacity:1; 
stroke-linecap:round; stroke-linejoin:round;fill:none"
d="M 79.5052,21.2452
96.1052,21.2452
96.1052,37.8452
79.5052,37.8452
Z" /> 
<path d="M147.0500 3.0500 A3.0000 3.0000 0.0 0 0 144.0500 0.0500" />
<path d="M147.0070 41.9600 A1.9560 1.9560 0.0 0 0 145.0511 40.0040" />
<path d="M2.0097 17.7143 A1.9560 1.9560 0.0 0 0 0.0537 19.6703" />
<path style="fill:none; 
stroke:#000000; stroke-width:0.1000; stroke-opacity:1; 
stroke-linecap:round; stroke-linejoin:round;fill:none"
d="M 108.7152,21.2452
125.3152,21.2452
125.3152,37.8452
108.7152,37.8452
Z" /> 
<path d="M2.0097 17.7143
L4.2475 17.7312
" />
<path d="M144.0500 48.0500 A3.0173 3.0173 0.0 0 0 147.0015 45.0334" />
<path d="M0.0563 6.0471 A1.9560 1.9560 0.0 0 0 2.0123 8.0031" />
<path d="M145.0254 30.3127 A1.9559 1.9559 0.0 0 0 146.9814 28.3568" />
<path style="fill:none; 
stroke:#000000; stroke-width:0.1000; stroke-opacity:1; 
stroke-linecap:round; stroke-linejoin:round;fill:none"
d="M 50.4222,21.2960
67.0222,21.2960
67.0222,37.8960
50.4222,37.8960
Z" /> 
<path d="M146.9814 22.4754
L146.9814 28.4754
" />
<path d="M0.0500 45.0500
L0.0537 25.5517
" />
<path d="M3.0500 0.0500 A3.0000 3.0000 0.0 0 0 0.0500 3.0500" />
<path d="M142.8159 30.2759 A4.8515 4.8515 0.0 0 0 142.8159 39.9789" />
<path d="M0.0537 25.5517
L0.0537 19.5517
" />
<path d="M144.0500 48.0500
L3.0500 48.0500
" />
<path d="M146.9842 45.0334
L147.0070 41.9600
" />
<path d="M4.2475 17.7312 A4.8515 4.8515 0.0 1 0 4.2475 8.0283" />
<path d="M2.0123 8.0031
L4.2475 8.0031
" />
</g>
<g style="fill:#000000; fill-opacity:1.0000; stroke:none;">
<circle cx="147.0070" cy="41.9600" r="0.0500" /> 
</g>
<g style="fill:none; 
stroke:#000000; stroke-width:0.1000; stroke-opacity:1; 
stroke-linecap:round; stroke-linejoin:round;">
<path d="M0.0563 6.0471
L0.0500 3.0500
" />
<path d="M3.0500 0.0500
L144.0500 0.0500
" />
<path d="M145.0511 40.0040
L142.8159 40.0040
" />
</g> 
</svg>
