<?xml version="1.0" encoding="UTF-8" standalone="no"?>
<svg xmlns="http://www.w3.org/2000/svg" xmlns:xlink="http://www.w3.org/1999/xlink" width="126.904mm" height="42.402mm" viewBox="136.797699 -221.201202 126.904449 42.402405">
    <path transform="matrix(1,0,0,-1,137.692902,-227.581406)" style="stroke:#000000;stroke-width:0.050000mm;fill:none" d="M79.3022,-21.054701L96.3022,-21.054701L96.3022,-38.054699L79.3022,-38.054699L79.3022,-21.054701z"/>
    <path transform="matrix(1,0,0,-1,137.692902,-227.581406)" style="stroke:#000000;stroke-width:0.050000mm;fill:none" d="M112.4645,-19.682199L112.4645,-16.680901L114.1623,-16.680901L114.1623,-17.1968L112.962799,-17.1968L112.962799,-17.9002L113.999603,-17.9002L113.999603,-18.416L112.962799,-18.416L112.962799,-19.682199L112.4645,-19.682199z"/>
    <path transform="matrix(1,0,0,-1,137.692902,-227.581406)" style="stroke:#000000;stroke-width:0.050000mm;fill:none" d="M116.701897,-19.682199L116.157501,-19.682199L115.941299,-19.0257L114.952103,-19.0257L114.748398,-19.682199L114.216499,-19.682199L114.593102,-18.5098L115.1045,-18.5098L115.780899,-18.5098L115.440903,-17.3866L115.1045,-18.5098L114.593102,-18.5098L115.180702,-16.680901L115.710503,-16.680901L116.701897,-19.682199z"/>
    <path transform="matrix(1,0,0,-1,137.692902,-227.581406)" style="stroke:#000000;stroke-width:0.050000mm;fill:none" d="M118.446503,-18.5567L118.930901,-18.744301L118.891701,-18.8976L118.8452,-19.0375L118.779701,-19.187599L118.703697,-19.3183L118.601601,-19.4464L118.553497,-19.4932L118.432297,-19.5851L118.2994,-19.6544L118.1549,-19.7012L117.998802,-19.725401L117.904297,-19.729099L117.757401,-19.7201L117.593102,-19.685499L117.441597,-19.624901L117.303101,-19.5383L117.177498,-19.4258L117.119499,-19.3598L117.019699,-19.219L116.936798,-19.063801L116.870796,-18.893999L116.8302,-18.747601L116.8004,-18.591999L116.781403,-18.427099L116.7733,-18.253L116.773003,-18.208L116.778397,-18.0217L116.794701,-17.8459L116.821899,-17.680599L116.860001,-17.5256L116.908897,-17.3811L116.968697,-17.246901L117.0588,-17.093901L117.121002,-17.009899L117.220901,-16.901699L117.354103,-16.7959L117.501801,-16.7166L117.6642,-16.663799L117.8106,-16.6399L117.935097,-16.634001L118.086403,-16.6441L118.2509,-16.681299L118.402397,-16.746L118.540901,-16.837999L118.631897,-16.9205L118.724899,-17.0347L118.804604,-17.1735L118.863503,-17.315201L118.912201,-17.4757L118.924301,-17.525L118.429703,-17.665701L118.390701,-17.521L118.326797,-17.3883L118.240601,-17.283199L118.117798,-17.196899L117.966698,-17.153099L117.907997,-17.1499L117.761803,-17.168699L117.618202,-17.233601L117.505798,-17.331699L117.460999,-17.3873L117.3853,-17.5249L117.336899,-17.677L117.308502,-17.830799L117.292297,-18.0063L117.288101,-18.1691L117.292198,-18.3381L117.304497,-18.4911L117.3302,-18.653601L117.375099,-18.8141L117.446198,-18.959101L117.456596,-18.9744L117.559799,-19.089899L117.693199,-19.1738L117.846397,-19.211201L117.896202,-19.213301L118.048203,-19.187401L118.182404,-19.109699L118.238403,-19.0564L118.328102,-18.9263L118.387398,-18.787399L118.429298,-18.6394L118.446503,-18.5567z"/>
    <path transform="matrix(1,0,0,-1,137.692902,-227.581406)" style="stroke:#000000;stroke-width:0.050000mm;fill:none" d="M121.411102,-19.682199L120.937103,-19.682199L120.937103,-17.478201L120.816803,-17.5965L120.688599,-17.7003L120.552597,-17.789499L120.408798,-17.8641L120.322998,-17.9002L120.322998,-17.384399L120.460701,-17.3153L120.588699,-17.2272L120.7062,-17.1271L120.732597,-17.102301L120.841904,-16.9832L120.930603,-16.8542L120.998901,-16.715401L121.027901,-16.634001L121.411102,-16.634001L121.411102,-19.682199z"/>
    <path transform="matrix(1,0,0,-1,137.692902,-227.581406)" style="stroke:#000000;stroke-width:0.050000mm;fill:none" d="M65.382004,-10.4444L65.382004,-6.4427L67.645599,-6.4427L67.645599,-7.1305L66.046303,-7.1305L66.046303,-8.0684L67.428703,-8.0684L67.428703,-8.7562L66.046303,-8.7562L66.046303,-10.4444L65.382004,-10.4444z"/>
    <path transform="matrix(1,0,0,-1,137.692902,-227.581406)" style="stroke:#000000;stroke-width:0.050000mm;fill:none" d="M68.2015,-10.4444L68.2015,-6.4427L68.865799,-6.4427L68.865799,-9.7566L70.525703,-9.7566L70.525703,-10.4444L68.2015,-10.4444z"/>
    <path transform="matrix(1,0,0,-1,137.692902,-227.581406)" style="stroke:#000000;stroke-width:0.050000mm;fill:none" d="M71.564201,-10.4444L71.564201,-7.1305L70.583397,-7.1305L70.583397,-6.4427L73.207497,-6.4427L73.207497,-7.1305L72.229599,-7.1305L72.229599,-10.4444L71.564201,-10.4444z"/>
    <path transform="matrix(1,0,0,-1,137.692902,-227.581406)" style="stroke:#000000;stroke-width:0.050000mm;fill:none" d="M76.847702,-8.9438L77.4935,-9.1939L77.441299,-9.3983L77.379303,-9.5848L77.292,-9.7849L77.190598,-9.9592L77.054497,-10.1299L76.990303,-10.1923L76.828697,-10.3149L76.651497,-10.4074L76.4589,-10.4698L76.250702,-10.502L76.124702,-10.5069L75.928902,-10.4949L75.709702,-10.4487L75.507797,-10.368L75.323097,-10.2526L75.155701,-10.1025L75.0784,-10.0145L74.945297,-9.8269L74.834702,-9.6198L74.746696,-9.3934L74.692596,-9.1983L74.652901,-8.9909L74.627602,-8.771L74.616699,-8.5387L74.616302,-8.4787L74.623497,-8.2304L74.645302,-7.996L74.681602,-7.7755L74.7323,-7.5689L74.7976,-7.3762L74.877296,-7.1974L74.997398,-6.9934L75.080399,-6.8814L75.213501,-6.737L75.391098,-6.596L75.588097,-6.4903L75.804604,-6.4198L75.999901,-6.388L76.165802,-6.3802L76.3675,-6.3936L76.5868,-6.4432L76.788803,-6.5294L76.973503,-6.6521L77.094902,-6.7622L77.218903,-6.9144L77.325203,-7.0995L77.403702,-7.2884L77.468597,-7.5024L77.484703,-7.5682L76.825203,-7.7558L76.7733,-7.5628L76.688004,-7.3858L76.573196,-7.2458L76.4095,-7.1307L76.207901,-7.0723L76.129601,-7.068L75.934799,-7.093L75.743301,-7.1796L75.593399,-7.3103L75.533699,-7.3845L75.4328,-7.568L75.368202,-7.7707L75.330399,-7.9758L75.308701,-8.2098L75.303101,-8.427L75.308601,-8.6523L75.325104,-8.8563L75.359299,-9.073L75.419197,-9.2869L75.514,-9.4803L75.527802,-9.5006L75.665398,-9.6546L75.8433,-9.7666L76.0476,-9.8163L76.113998,-9.8191L76.316498,-9.7846L76.495598,-9.6811L76.570198,-9.6101L76.689903,-9.4366L76.768799,-9.2513L76.824799,-9.054L76.847702,-8.9438z"/>
    <path transform="matrix(1,0,0,-1,137.692902,-227.581406)" style="stroke:#000000;stroke-width:0.050000mm;fill:none" d="M78.789902,-10.4444L78.789902,-7.1305L77.808998,-7.1305L77.808998,-6.4427L80.433197,-6.4427L80.433197,-7.1305L79.4552,-7.1305L79.4552,-10.4444L78.789902,-10.4444z"/>
    <path transform="matrix(1,0,0,-1,137.692902,-227.581406)" style="stroke:#000000;stroke-width:0.050000mm;fill:none" d="M80.870903,-10.4444L80.870903,-6.4427L81.535202,-6.4427L81.535202,-9.7566L83.195099,-9.7566L83.195099,-10.4444L80.870903,-10.4444z"/>
    <path transform="matrix(1,0,0,-1,137.692902,-227.581406)" style="stroke:#000000;stroke-width:0.050000mm;fill:none" d="M82.743797,-18.697399L83.231796,-18.650499L83.2668,-18.812599L83.333,-18.9709L83.425499,-19.0896L83.566597,-19.178101L83.716202,-19.2111L83.771797,-19.213301L83.928497,-19.197001L84.067299,-19.142599L84.1287,-19.0975L84.221802,-18.9769L84.257896,-18.8321L84.2584,-18.811001L84.225998,-18.663L84.212898,-18.640301L84.102402,-18.539301L84.074501,-18.5245L83.929802,-18.468201L83.787201,-18.421301L83.625298,-18.3713L83.476196,-18.3223L83.334,-18.264799L83.196899,-18.191L83.157097,-18.1633L83.0467,-18.059999L82.9562,-17.9335L82.921097,-17.867201L82.867996,-17.725901L82.839401,-17.576799L82.834,-17.473L82.844902,-17.3244L82.882202,-17.172001L82.946098,-17.0312L83.033699,-16.907499L83.141403,-16.806499L83.256699,-16.7344L83.403702,-16.677299L83.556198,-16.645901L83.708801,-16.634399L83.744698,-16.634001L83.902,-16.6422L84.068398,-16.6721L84.216301,-16.724199L84.345703,-16.798401L84.426903,-16.864901L84.5233,-16.9753L84.597504,-17.104799L84.649696,-17.2533L84.679802,-17.420799L84.686996,-17.525L84.185799,-17.571899L84.154198,-17.427L84.087799,-17.291201L84.043701,-17.2437L83.9114,-17.1733L83.757797,-17.150299L83.733002,-17.1499L83.584099,-17.164L83.442902,-17.220301L83.4216,-17.2356L83.330399,-17.3521L83.312401,-17.448799L83.355003,-17.5963L83.411301,-17.659901L83.547096,-17.7391L83.686401,-17.7945L83.844398,-17.8466L83.866402,-17.8533L84.0214,-17.903999L84.174103,-17.962L84.314499,-18.027399L84.411499,-18.0856L84.526199,-18.1824L84.618698,-18.2983L84.667999,-18.386L84.722,-18.535L84.749603,-18.690901L84.756599,-18.832199L84.745003,-18.9925L84.710197,-19.141199L84.652199,-19.278299L84.5709,-19.4039L84.514099,-19.4704L84.395203,-19.571199L84.250198,-19.647301L84.105103,-19.692699L83.940697,-19.719999L83.789101,-19.7288L83.757202,-19.729099L83.593597,-19.719999L83.444298,-19.692801L83.267197,-19.6283L83.115303,-19.531601L82.988602,-19.4027L82.887199,-19.241501L82.827599,-19.0994L82.782303,-18.939199L82.751099,-18.7609L82.743797,-18.697399z"/>
    <path transform="matrix(1,0,0,-1,137.692902,-227.581406)" style="stroke:#000000;stroke-width:0.050000mm;fill:none" d="M85.166199,-19.682199L85.166199,-16.680901L87.004601,-16.680901L87.004601,-17.1968L85.665199,-17.1968L85.665199,-17.9002L86.909401,-17.9002L86.909401,-18.369101L85.665199,-18.369101L85.665199,-19.166401L87.050102,-19.166401L87.050102,-19.682199L85.166199,-19.682199z"/>
    <path transform="matrix(1,0,0,-1,137.692902,-227.581406)" style="stroke:#000000;stroke-width:0.050000mm;fill:none" d="M89.045998,-18.5567L89.530403,-18.744301L89.491203,-18.8976L89.444702,-19.0375L89.379204,-19.187599L89.3032,-19.3183L89.201103,-19.4464L89.153,-19.4932L89.031799,-19.5851L88.898903,-19.6544L88.754402,-19.7012L88.598297,-19.725401L88.503799,-19.729099L88.356903,-19.7201L88.192596,-19.685499L88.0411,-19.624901L87.902603,-19.5383L87.777,-19.4258L87.719101,-19.3598L87.619202,-19.219L87.536301,-19.063801L87.470299,-18.893999L87.429703,-18.747601L87.399902,-18.591999L87.380898,-18.427099L87.372803,-18.253L87.372498,-18.208L87.377899,-18.0217L87.394203,-17.8459L87.421402,-17.680599L87.459503,-17.5256L87.5084,-17.3811L87.568298,-17.246901L87.658302,-17.093901L87.720497,-17.009899L87.820396,-16.901699L87.953598,-16.7959L88.101402,-16.7166L88.263702,-16.663799L88.410103,-16.6399L88.534599,-16.634001L88.685898,-16.6441L88.850403,-16.681299L89.0019,-16.746L89.140404,-16.837999L89.2314,-16.9205L89.324402,-17.0347L89.404099,-17.1735L89.462997,-17.315201L89.511703,-17.4757L89.523804,-17.525L89.029198,-17.665701L88.990196,-17.521L88.9263,-17.3883L88.840103,-17.283199L88.7174,-17.196899L88.5662,-17.153099L88.5075,-17.1499L88.361298,-17.168699L88.217697,-17.233601L88.105301,-17.331699L88.060501,-17.3873L87.984901,-17.5249L87.936401,-17.677L87.907997,-17.830799L87.8918,-18.0063L87.887604,-18.1691L87.891701,-18.3381L87.903999,-18.4911L87.929703,-18.653601L87.974602,-18.8141L88.0457,-18.959101L88.056099,-18.9744L88.159302,-19.089899L88.292801,-19.1738L88.4459,-19.211201L88.495697,-19.213301L88.647697,-19.187401L88.781898,-19.109699L88.837898,-19.0564L88.927597,-18.9263L88.9869,-18.787399L89.028801,-18.6394L89.045998,-18.5567z"/>
    <path transform="matrix(1,0,0,-1,137.692902,-227.581406)" style="stroke:#000000;stroke-width:0.050000mm;fill:none" d="M92.010597,-19.682199L91.536598,-19.682199L91.536598,-17.478201L91.416298,-17.5965L91.288101,-17.7003L91.1521,-17.789499L91.008301,-17.8641L90.922501,-17.9002L90.922501,-17.384399L91.060204,-17.3153L91.188202,-17.2272L91.305702,-17.1271L91.3321,-17.102301L91.441399,-16.9832L91.530197,-16.8542L91.598396,-16.715401L91.627403,-16.634001L92.010597,-16.634001L92.010597,-19.682199z"/>
    <path transform="matrix(1,0,0,-1,137.692902,-227.581406)" style="stroke:#000000;stroke-width:0.050000mm;fill:none" d="M52.848499,-19.682199L52.848499,-16.680901L54.686901,-16.680901L54.686901,-17.1968L53.3475,-17.1968L53.3475,-17.9002L54.591702,-17.9002L54.591702,-18.369101L53.3475,-18.369101L53.3475,-19.166401L54.732399,-19.166401L54.732399,-19.682199L52.848499,-19.682199z"/>
    <path transform="matrix(1,0,0,-1,137.692902,-227.581406)" style="stroke:#000000;stroke-width:0.050000mm;fill:none" d="M55.155899,-19.682199L55.155899,-16.680901L55.654099,-16.680901L55.654099,-19.166401L56.898998,-19.166401L56.898998,-19.682199L55.155899,-19.682199z"/>
    <path transform="matrix(1,0,0,-1,137.692902,-227.581406)" style="stroke:#000000;stroke-width:0.050000mm;fill:none" d="M59.479698,-19.682199L58.935299,-19.682199L58.719101,-19.0257L57.73,-19.0257L57.526299,-19.682199L56.994301,-19.682199L57.370998,-18.5098L57.882401,-18.5098L58.558701,-18.5098L58.2187,-17.3866L57.882401,-18.5098L57.370998,-18.5098L57.958599,-16.680901L58.4883,-16.680901L59.479698,-19.682199z"/>
    <path transform="matrix(1,0,0,-1,137.692902,-227.581406)" style="stroke:#000000;stroke-width:0.050000mm;fill:none" d="M61.3181,-18.5567L61.802502,-18.744301L61.763302,-18.8976L61.716801,-19.0375L61.651299,-19.187599L61.575298,-19.3183L61.473301,-19.4464L61.425098,-19.4932L61.303902,-19.5851L61.171001,-19.6544L61.026501,-19.7012L60.870399,-19.725401L60.775902,-19.729099L60.629002,-19.7201L60.464699,-19.685499L60.313202,-19.624901L60.174702,-19.5383L60.049099,-19.4258L59.991199,-19.3598L59.8913,-19.219L59.808399,-19.063801L59.742401,-18.893999L59.701801,-18.747601L59.672001,-18.591999L59.653,-18.427099L59.644901,-18.253L59.6446,-18.208L59.650002,-18.0217L59.666302,-17.8459L59.693501,-17.680599L59.731602,-17.5256L59.780499,-17.3811L59.840401,-17.246901L59.930401,-17.093901L59.992599,-17.009899L60.092499,-16.901699L60.2257,-16.7959L60.373501,-16.7166L60.535801,-16.663799L60.682201,-16.6399L60.806702,-16.634001L60.958,-16.6441L61.122501,-16.681299L61.273998,-16.746L61.412498,-16.837999L61.503502,-16.9205L61.5965,-17.0347L61.6763,-17.1735L61.7351,-17.315201L61.783798,-17.4757L61.795898,-17.525L61.3013,-17.665701L61.262402,-17.521L61.198399,-17.3883L61.112202,-17.283199L60.989498,-17.196899L60.838299,-17.153099L60.779598,-17.1499L60.6334,-17.168699L60.489799,-17.233601L60.377399,-17.331699L60.3326,-17.3873L60.257,-17.5249L60.2085,-17.677L60.180099,-17.830799L60.163898,-18.0063L60.159698,-18.1691L60.163799,-18.3381L60.176102,-18.4911L60.201801,-18.653601L60.246799,-18.8141L60.317799,-18.959101L60.328201,-18.9744L60.4314,-19.089899L60.564899,-19.1738L60.717999,-19.211201L60.767899,-19.213301L60.9198,-19.187401L61.054001,-19.109699L61.110001,-19.0564L61.199799,-18.9263L61.258999,-18.787399L61.3009,-18.6394L61.3181,-18.5567z"/>
    <path transform="matrix(1,0,0,-1,137.692902,-227.581406)" style="stroke:#000000;stroke-width:0.050000mm;fill:none" d="M64.282799,-19.682199L63.808701,-19.682199L63.808701,-17.478201L63.6884,-17.5965L63.5602,-17.7003L63.424198,-17.789499L63.280399,-17.8641L63.194698,-17.9002L63.194698,-17.384399L63.332298,-17.3153L63.4603,-17.2272L63.577801,-17.1271L63.604198,-17.102301L63.713501,-16.9832L63.802299,-16.8542L63.870499,-16.715401L63.899502,-16.634001L64.282799,-16.634001L64.282799,-19.682199z"/>
    <path transform="matrix(1,0,0,-1,137.692902,-227.581406)" style="stroke:#000000;stroke-width:0.050000mm;fill:none" d="M6.1048,-48.052601L-0.8952,-48.052601"/>
    <path transform="matrix(1,0,0,-1,137.692902,-227.581406)" style="stroke:#000000;stroke-width:0.050000mm;fill:none" d="M108.509399,-21.0394L125.509399,-21.0394L125.509399,-38.039398L108.509399,-38.039398L108.509399,-21.0394z"/>
    <path transform="matrix(1,0,0,-1,137.692902,-227.581406)" style="stroke:#000000;stroke-width:0.050000mm;fill:none" d="M50.2164,-21.0902L67.2164,-21.0902L67.2164,-38.090199L50.2164,-38.090199L50.2164,-21.0902z"/>
    <path transform="matrix(1,0,0,-1,137.692902,-227.581406)" style="stroke:#000000;stroke-width:0.050000mm;fill:none" d="M0.0548,-41.7826L0.0548,-48.7826"/>
    <path transform="matrix(1,0,0,-1,0,0)" style="stroke:#000000;stroke-width:0.050000mm;fill:none" d="M263.264648,189.045898C263.514374,189.078613,263.702667,189.290131,263.702148,189.541992L263.702148,206.541992C263.702026,206.817856,263.477997,207.040146,263.202148,207.041992L246.202148,207.041992C246.069504,207.04126,245.941971,206.989151,245.848007,206.895554C245.754028,206.801941,245.701447,206.674622,245.702148,206.541992L245.702148,189.541992C245.703583,189.266052,245.926193,189.041702,246.202148,189.041992L263.202148,189.041992L263.264648,189.045898z"/>
    <path transform="matrix(1,0,0,-1,0,0)" style="stroke:#000000;stroke-width:0.050000mm;fill:none" d="M234.057617,189.030762C234.308594,189.059464,234.496765,189.274231,234.495117,189.526855L234.495117,206.526855C234.498306,206.659531,234.444794,206.786469,234.35022,206.879501C234.255646,206.972519,234.127823,207.023911,233.995117,207.026855L216.995117,207.026855C216.862488,207.02742,216.735184,206.974792,216.641541,206.880875C216.547882,206.786942,216.495636,206.6595,216.495117,206.526855L216.495117,189.526855C216.499191,189.251465,216.71965,189.027313,216.995117,189.026855L233.995117,189.026855L234.057617,189.030762z"/>
    <path transform="matrix(1,0,0,-1,0,0)" style="stroke:#000000;stroke-width:0.050000mm;fill:none" d="M204.97168,188.995117C205.222244,189.025009,205.410126,189.238861,205.40918,189.491211L205.40918,206.491211C205.406937,206.766891,205.184891,206.990677,204.90918,206.991211L187.90918,206.991211C187.633911,206.988022,187.41153,206.766495,187.40918,206.491211L187.40918,189.491211L187.413086,189.428711C187.440628,189.238312,187.568436,189.075958,187.751465,189.016602C187.801956,188.998428,187.855499,188.990204,187.90918,188.991211L204.90918,188.991211L204.97168,188.995117z"/>
</svg>
