<?xml version="1.0" standalone="no"?>
 <!DOCTYPE svg PUBLIC "-//W3C//DTD SVG 1.1//EN" 
 "http://www.w3.org/Graphics/SVG/1.1/DTD/svg11.dtd"> 
<svg
  xmlns:svg="http://www.w3.org/2000/svg"
  xmlns="http://www.w3.org/2000/svg"
  xmlns:xlink="http://www.w3.org/1999/xlink"
  version="1.1"
  width="147.0914mm" height="48.0822mm" viewBox="0.0000 0.0000 147.0914 48.0822">
<title>SVG Image created as FLT_CTL-User_3.svg date 2024/11/28 21:43:07 </title>
  <desc>Image generated by PCBNEW </desc>
<g style="fill:#000000; fill-opacity:1.0000;stroke:#000000; stroke-opacity:1.0000;
stroke-linecap:round; stroke-linejoin:round;"
 transform="translate(0 0) scale(1 1)">
<path style="fill:none; 
stroke:#000000; stroke-width:0.1000; stroke-opacity:1; 
stroke-linecap:round; stroke-linejoin:round;fill:none"
d="M 48.9164,19.7902
68.5164,19.7902
68.5164,39.3902
48.9164,39.3902
Z" /> 
<path style="fill:none; 
stroke:#000000; stroke-width:0.1000; stroke-opacity:1; 
stroke-linecap:round; stroke-linejoin:round;fill:none"
d="M 107.2094,19.7394
126.8094,19.7394
126.8094,39.3394
107.2094,39.3394
Z" /> 
</g>
<g style="fill:none; 
stroke:#000000; stroke-width:0.1000; stroke-opacity:1; 
stroke-linecap:round; stroke-linejoin:round;">
<path d="M144.0500 48.0500 A3.0000 3.0000 0.0 0 0 147.0500 45.0500" />
<path style="fill:none; 
stroke:#000000; stroke-width:0.1000; stroke-opacity:1; 
stroke-linecap:round; stroke-linejoin:round;fill:none"
d="M 78.0022,19.7547
97.6022,19.7547
97.6022,39.3547
78.0022,39.3547
Z" /> 
<circle cx="130.9036" cy="41.7060" r="1.6000" /> 
<path d="M0.0500 45.0500 A3.0000 3.0000 0.0 0 0 3.0500 48.0500" />
<circle cx="13.8600" cy="6.6536" r="1.6000" /> 
<path d="M147.0500 3.0500 A3.0000 3.0000 0.0 0 0 144.0500 0.0500" />
<path d="M3.0500 0.0500 A3.0000 3.0000 0.0 0 0 0.0500 3.0500" />
<path d="M0.0500 45.0500
L0.0500 3.0500
" />
<circle cx="13.8346" cy="41.7060" r="1.6000" /> 
<circle cx="4.2475" cy="12.8797" r="2.2000" /> 
<circle cx="130.9036" cy="6.6536" r="1.6000" /> 
<path d="M3.0500 0.0500
L144.0500 0.0500
" />
<path d="M144.0500 48.0500
L3.0500 48.0500
" />
<path d="M147.0500 3.0500
L147.0500 45.0500
" />
<circle cx="142.8159" cy="35.1274" r="2.2000" /> 
</g> 
</svg>
